HIERARCHY
ROOT Root
{
  OFFSET 0.0 0.0 0.0
  CHANNELS 6 Xposition Yposition Zposition Zrotation Yrotation Xrotation
  JOINT Hips
  {
    OFFSET 0.0 100.0 0.0
    CHANNELS 6 Xposition Yposition Zposition Zrotation Yrotation Xrotation
    JOINT Spine1
    {
      OFFSET 5.003913 -0.037094 -0.013727
      CHANNELS 3 Zrotation Yrotation Xrotation
      JOINT Spine2
      {
        OFFSET 7.125363 -1e-06 0.0
        CHANNELS 3 Zrotation Yrotation Xrotation
        JOINT Chest
        {
          OFFSET 7.594027 1e-06 0.0
          CHANNELS 3 Zrotation Yrotation Xrotation
          JOINT Neck1
          {
            OFFSET 26.313086 -0.460272 -0.181672
            CHANNELS 3 Zrotation Yrotation Xrotation
            JOINT Neck2
            {
              OFFSET 8.045911 0.0 0.0
              CHANNELS 3 Zrotation Yrotation Xrotation
              JOINT Head
              {
                OFFSET 6.432774 0.0 0.0
                CHANNELS 3 Zrotation Yrotation Xrotation
                JOINT HeadEnd
                {
                  OFFSET 16.169773 0.06451 0.00362
                  CHANNELS 3 Zrotation Yrotation Xrotation
                }
                JOINT Jaw
                {
                  OFFSET 0.108741 3.12938 0.002639
                  CHANNELS 3 Zrotation Yrotation Xrotation
                }
                JOINT LeftEye
                {
                  OFFSET 4.45173 8.166359 3.206392
                  CHANNELS 3 Zrotation Yrotation Xrotation
                }
                JOINT RightEye
                {
                  OFFSET 4.436895 8.135758 -3.222429
                  CHANNELS 3 Zrotation Yrotation Xrotation
                }
              }
            }
          }
          JOINT LeftShoulder
          {
            OFFSET 23.218927 5.195579 1.621656
            CHANNELS 3 Zrotation Yrotation Xrotation
            JOINT LeftArm
            {
              OFFSET 15.902118 2e-06 -2e-06
              CHANNELS 3 Zrotation Yrotation Xrotation
              JOINT LeftForeArm
              {
                OFFSET 28.739307 0.0 -1e-06
                CHANNELS 3 Zrotation Yrotation Xrotation
                JOINT LeftHand
                {
                  OFFSET 27.093981 -4e-06 0.0
                  CHANNELS 3 Zrotation Yrotation Xrotation
                  JOINT LeftHandThumb1
                  {
                    OFFSET 2.276781 3.380274 0.83384
                    CHANNELS 3 Zrotation Yrotation Xrotation
                    JOINT LeftHandThumb2
                    {
                      OFFSET 4.705309 -1e-06 -1e-06
                      CHANNELS 3 Zrotation Yrotation Xrotation
                      JOINT LeftHandThumb3
                      {
                        OFFSET 2.798515 0.0 3e-06
                        CHANNELS 3 Zrotation Yrotation Xrotation
                        JOINT LeftHandThumbEnd
                        {
                          OFFSET 3.180793 4e-06 -4e-06
                          CHANNELS 3 Zrotation Yrotation Xrotation
                        }
                      }
                    }
                  }
                  JOINT LeftHandIndex1
                  {
                    OFFSET 3.247786 2.352677 0.137192
                    CHANNELS 3 Zrotation Yrotation Xrotation
                    JOINT LeftHandIndex2
                    {
                      OFFSET 6.367095 1e-06 0.0
                      CHANNELS 3 Zrotation Yrotation Xrotation
                      JOINT LeftHandIndex3
                      {
                        OFFSET 3.662364 0.0 0.0
                        CHANNELS 3 Zrotation Yrotation Xrotation
                        JOINT LeftHandIndex4
                        {
                          OFFSET 2.329242 4e-06 -4e-06
                          CHANNELS 3 Zrotation Yrotation Xrotation
                          JOINT LeftHandIndexEnd
                          {
                            OFFSET 2.767823 1e-06 0.0
                            CHANNELS 3 Zrotation Yrotation Xrotation
                          }
                        }
                      }
                    }
                  }
                  JOINT LeftHandMiddle1
                  {
                    OFFSET 3.163612 0.945023 -0.406112
                    CHANNELS 3 Zrotation Yrotation Xrotation
                    JOINT LeftHandMiddle2
                    {
                      OFFSET 6.276789 3e-06 0.0
                      CHANNELS 3 Zrotation Yrotation Xrotation
                      JOINT LeftHandMiddle3
                      {
                        OFFSET 4.35652 -1e-06 4e-06
                        CHANNELS 3 Zrotation Yrotation Xrotation
                        JOINT LeftHandMiddle4
                        {
                          OFFSET 2.996877 0.0 8e-06
                          CHANNELS 3 Zrotation Yrotation Xrotation
                          JOINT LeftHandMiddleEnd
                          {
                            OFFSET 2.323256 3e-06 -4e-06
                            CHANNELS 3 Zrotation Yrotation Xrotation
                          }
                        }
                      }
                    }
                  }
                  JOINT LeftHandRing1
                  {
                    OFFSET 2.882606 -0.309162 0.107445
                    CHANNELS 3 Zrotation Yrotation Xrotation
                    JOINT LeftHandRing2
                    {
                      OFFSET 6.033198 0.0 4e-06
                      CHANNELS 3 Zrotation Yrotation Xrotation
                      JOINT LeftHandRing3
                      {
                        OFFSET 4.350578 3e-06 0.0
                        CHANNELS 3 Zrotation Yrotation Xrotation
                        JOINT LeftHandRing4
                        {
                          OFFSET 2.651321 2e-06 -7e-06
                          CHANNELS 3 Zrotation Yrotation Xrotation
                          JOINT LeftHandRingEnd
                          {
                            OFFSET 1.937663 1e-06 -4e-06
                            CHANNELS 3 Zrotation Yrotation Xrotation
                          }
                        }
                      }
                    }
                  }
                  JOINT LeftHandPinky1
                  {
                    OFFSET 2.865315 -1.525436 0.575687
                    CHANNELS 3 Zrotation Yrotation Xrotation
                    JOINT LeftHandPinky2
                    {
                      OFFSET 5.54936 1e-06 -8e-06
                      CHANNELS 3 Zrotation Yrotation Xrotation
                      JOINT LeftHandPinky3
                      {
                        OFFSET 3.070974 0.0 -4e-06
                        CHANNELS 3 Zrotation Yrotation Xrotation
                        JOINT LeftHandPinky4
                        {
                          OFFSET 1.549672 1e-06 0.0
                          CHANNELS 3 Zrotation Yrotation Xrotation
                          JOINT LeftHandPinkyEnd
                          {
                            OFFSET 1.952123 0.0 0.0
                            CHANNELS 3 Zrotation Yrotation Xrotation
                          }
                        }
                      }
                    }
                  }
                }
              }
            }
          }
          JOINT RightShoulder
          {
            OFFSET 23.161716 5.296122 -1.380114
            CHANNELS 3 Zrotation Yrotation Xrotation
            JOINT RightArm
            {
              OFFSET -16.027195 -2e-06 1.1e-05
              CHANNELS 3 Zrotation Yrotation Xrotation
              JOINT RightForeArm
              {
                OFFSET -28.736639 4e-06 2e-06
                CHANNELS 3 Zrotation Yrotation Xrotation
                JOINT RightHand
                {
                  OFFSET -27.133619 6e-06 0.0
                  CHANNELS 3 Zrotation Yrotation Xrotation
                  JOINT RightHandThumb1
                  {
                    OFFSET -2.274328 -3.351035 -0.83067
                    CHANNELS 3 Zrotation Yrotation Xrotation
                    JOINT RightHandThumb2
                    {
                      OFFSET -4.703594 -3e-06 2e-06
                      CHANNELS 3 Zrotation Yrotation Xrotation
                      JOINT RightHandThumb3
                      {
                        OFFSET -2.794935 -4e-06 -3e-06
                        CHANNELS 3 Zrotation Yrotation Xrotation
                        JOINT RightHandThumbEnd
                        {
                          OFFSET -3.183852 4e-06 1e-06
                          CHANNELS 3 Zrotation Yrotation Xrotation
                        }
                      }
                    }
                  }
                  JOINT RightHandIndex1
                  {
                    OFFSET -3.253496 -2.33755 -0.127667
                    CHANNELS 3 Zrotation Yrotation Xrotation
                    JOINT RightHandIndex2
                    {
                      OFFSET -6.344434 0.0 0.0
                      CHANNELS 3 Zrotation Yrotation Xrotation
                      JOINT RightHandIndex3
                      {
                        OFFSET -3.654871 0.0 -8e-06
                        CHANNELS 3 Zrotation Yrotation Xrotation
                        JOINT RightHandIndex4
                        {
                          OFFSET -2.327586 -1e-06 0.0
                          CHANNELS 3 Zrotation Yrotation Xrotation
                          JOINT RightHandIndexEnd
                          {
                            OFFSET -2.770001 3e-06 8e-06
                            CHANNELS 3 Zrotation Yrotation Xrotation
                          }
                        }
                      }
                    }
                  }
                  JOINT RightHandMiddle1
                  {
                    OFFSET -3.168223 -0.944764 0.411762
                    CHANNELS 3 Zrotation Yrotation Xrotation
                    JOINT RightHandMiddle2
                    {
                      OFFSET -6.266691 -1e-06 -4e-06
                      CHANNELS 3 Zrotation Yrotation Xrotation
                      JOINT RightHandMiddle3
                      {
                        OFFSET -4.348901 0.0 0.0
                        CHANNELS 3 Zrotation Yrotation Xrotation
                        JOINT RightHandMiddle4
                        {
                          OFFSET -3.00024 2e-06 -4e-06
                          CHANNELS 3 Zrotation Yrotation Xrotation
                          JOINT RightHandMiddleEnd
                          {
                            OFFSET -2.321477 -4e-06 -4e-06
                            CHANNELS 3 Zrotation Yrotation Xrotation
                          }
                        }
                      }
                    }
                  }
                  JOINT RightHandRing1
                  {
                    OFFSET -2.885654 0.293261 -0.119232
                    CHANNELS 3 Zrotation Yrotation Xrotation
                    JOINT RightHandRing2
                    {
                      OFFSET -6.032835 -1e-06 -4e-06
                      CHANNELS 3 Zrotation Yrotation Xrotation
                      JOINT RightHandRing3
                      {
                        OFFSET -4.33881 0.0 -4e-06
                        CHANNELS 3 Zrotation Yrotation Xrotation
                        JOINT RightHandRing4
                        {
                          OFFSET -2.654903 -4e-06 -4e-06
                          CHANNELS 3 Zrotation Yrotation Xrotation
                          JOINT RightHandRingEnd
                          {
                            OFFSET -1.935122 0.0 4e-06
                            CHANNELS 3 Zrotation Yrotation Xrotation
                          }
                        }
                      }
                    }
                  }
                  JOINT RightHandPinky1
                  {
                    OFFSET -2.866241 1.503904 -0.60527
                    CHANNELS 3 Zrotation Yrotation Xrotation
                    JOINT RightHandPinky2
                    {
                      OFFSET -5.553177 -2e-06 0.0
                      CHANNELS 3 Zrotation Yrotation Xrotation
                      JOINT RightHandPinky3
                      {
                        OFFSET -3.062664 -1e-06 -4e-06
                        CHANNELS 3 Zrotation Yrotation Xrotation
                        JOINT RightHandPinky4
                        {
                          OFFSET -1.546529 2e-06 4e-06
                          CHANNELS 3 Zrotation Yrotation Xrotation
                          JOINT RightHandPinkyEnd
                          {
                            OFFSET -1.952341 0.0 -4e-06
                            CHANNELS 3 Zrotation Yrotation Xrotation
                          }
                        }
                      }
                    }
                  }
                }
              }
            }
          }
        }
      }
    }
    JOINT LeftLeg
    {
      OFFSET -8.443107 2.567604 10.043214
      CHANNELS 3 Zrotation Yrotation Xrotation
      JOINT LeftShin
      {
        OFFSET 43.229198 1e-06 -1e-06
        CHANNELS 3 Zrotation Yrotation Xrotation
        JOINT LeftFoot
        {
          OFFSET 42.298611 1e-06 1e-06
          CHANNELS 3 Zrotation Yrotation Xrotation
          JOINT LeftToeBase
          {
            OFFSET 14.165858 1e-06 0.0
            CHANNELS 3 Zrotation Yrotation Xrotation
            JOINT LeftToeEnd
            {
              OFFSET 6.7141 -0.234461 0.0
              CHANNELS 3 Zrotation Yrotation Xrotation
            }
          }
        }
      }
    }
    JOINT RightLeg
    {
      OFFSET -8.303923 2.592729 -10.047278
      CHANNELS 3 Zrotation Yrotation Xrotation
      JOINT RightShin
      {
        OFFSET -43.369682 0.0 1e-06
        CHANNELS 3 Zrotation Yrotation Xrotation
        JOINT RightFoot
        {
          OFFSET -42.260784 4e-06 2e-06
          CHANNELS 3 Zrotation Yrotation Xrotation
          JOINT RightToeBase
          {
            OFFSET -14.222245 -2e-06 -1e-06
            CHANNELS 3 Zrotation Yrotation Xrotation
            JOINT RightToeEnd
            {
              OFFSET -6.660062 0.232574 -2e-06
              CHANNELS 3 Zrotation Yrotation Xrotation
            }
          }
        }
      }
    }
  }
}
MOTION
Frames: 4
Frame Time: 0.03333333333333333
0.0 0.0 0.0 0.0 -0.0 0.0 1.076455 85.154045 -2.194994 89.682503 -5.074837 89.037491 9.579731 -0.323482 1.312228 -6.925792 0.012543 1.52123 24.815538 -0.931165 1.386683 21.300739 -1.459099 2.511737 -2.81952 -0.176998 0.724676 -46.000389 -0.332696 0.389822 6e-06 0.0 -0.0 -0.000711 0.027046 -0.164209 -0.011654 0.04137 -0.14101 0.014281 0.00381 -0.192592 -116.814087 -79.42289 133.544907 54.487888 -56.478436 -55.353447 119.97718 -0.500496 0.136986 17.33634 20.536142 72.861946 17.636721 -26.322985 52.411495 -19.466843 -14.395704 29.410627 -4e-06 -8.774912 2e-06 15.752925 -18.270342 6.509836 -0.609778 -1.795667 -3.889349 -4.80712 -11.046926 -2.937862 -1e-06 -20.976318 2.1e-05 -5.020052 -25.034019 -4.0319 4e-06 -3e-06 0.0 -10.634592 -5.687012 -3.565601 10.573361 -17.923143 -3.113924 2e-06 -13.821404 1.2e-05 -0.50179 -31.182123 -4.027049 -10.911386 -59.240402 6.548506 -13.982788 -7.150247 -2.87505 13.772833 -8.401579 -3.21827 0.347721 -34.21209 0.771698 -0.963055 -17.733698 2.621078 1e-06 1e-06 1e-06 -17.346521 -20.095377 -4.201778 21.757719 -1.638388 3.866446 2e-06 -6.338911 3e-06 -1.6976 -22.592161 -6.194086 0.0 -1e-06 -1e-06 134.302719 -85.499672 58.982327 61.778084 -43.431747 -44.830521 102.308159 1.133127 0.312972 13.890467 24.476589 65.352882 22.182108 -20.375916 49.933403 -16.701935 -16.743608 28.476662 -5e-06 -12.690671 1.7e-05 17.959993 -17.534191 2.31267 -0.105915 -1.513865 -4.275893 -5.039058 -5.612908 -2.953561 3e-06 -11.020611 -1.2e-05 -6.111328 -15.89551 -3.840496 0.0 1e-06 -1e-06 -10.283397 -5.680322 -4.341839 11.028339 -11.302467 -2.372663 -1.384272 -14.2387 -6.320162 -0.625414 -26.924498 -3.827671 -4.730631 -51.496281 -2.492718 -13.708563 -7.363516 -3.720932 18.141228 -14.052814 -3.242721 7e-06 -18.787416 -2.9e-05 -0.42971 -8.456125 2.555506 0.0 0.0 1e-06 -15.923589 -20.094589 -5.473575 30.419331 -7.19084 1.735895 1e-06 -8.162981 -1.6e-05 -1.861884 -22.861721 -6.168041 -3e-06 -6e-06 -0.0 125.515762 -9.256608 -8.595049 43.398518 0.141643 -0.120426 -74.614685 -8.437603 1.719284 -10.553312 1.784519 1.995777 -0.999999 -1e-06 1e-06 -17.952448 -2.093245 -1.147384 70.864388 -0.691227 0.174778 -100.45372 6.546505 6.045388 -25.4048 1.074568 1.474845 -1.000001 0.0 -0.0 
0.0 0.0 0.0 0.0 -0.0 0.0 2.603812 85.242935 1.672609 89.916695 -5.596368 88.654396 9.316214 -0.537237 1.313118 -7.07134 0.010681 1.613956 24.623068 -1.066736 1.700479 21.295719 -1.190931 2.345377 -2.657104 -0.345503 0.638974 -45.904686 -0.20819 0.202497 6e-06 0.0 0.0 0.017007 0.028554 -0.110795 0.035292 0.022827 -0.087236 0.050032 0.026587 -0.138861 -115.619164 -79.466789 132.024963 54.269062 -56.223427 -54.011463 119.611641 -0.184884 0.165978 16.448891 20.017668 71.481064 17.636747 -26.322821 52.411415 -19.466715 -14.395624 29.410505 2e-06 -8.774869 -1.5e-05 15.745726 -18.029083 6.329016 -0.609782 -1.795658 -3.889339 -4.807111 -11.046839 -2.937869 1e-05 -20.976103 -4e-06 -5.019977 -25.03371 -4.031936 6e-06 -2e-06 1e-06 -10.634579 -5.686987 -3.565608 10.573314 -17.923002 -3.113905 5e-06 -13.82127 3e-06 -0.501757 -31.181736 -4.02706 -10.949343 -59.09037 6.667959 -13.982766 -7.150221 -2.875064 13.772782 -8.401515 -3.21824 0.347741 -34.211735 0.77167 -0.963035 -17.733501 2.621059 1e-06 2e-06 1e-06 -17.346489 -20.095276 -4.201814 21.757647 -1.638386 3.86647 4e-06 -6.338852 4e-06 -1.697587 -22.591906 -6.194067 -0.0 -4e-06 -1e-06 132.077972 -85.469574 61.256264 61.057495 -44.983582 -44.654114 103.755623 1.043827 0.512151 13.744633 24.091473 66.060944 22.182219 -20.376028 49.933517 -16.701834 -16.74357 28.476622 -1e-05 -12.690639 -5e-06 17.826803 -17.544249 2.370124 -0.105922 -1.513856 -4.275894 -5.039053 -5.612878 -2.953569 1.1e-05 -11.020559 8e-06 -6.111302 -15.895404 -3.840494 0.0 1e-06 -2e-06 -10.283397 -5.680292 -4.34186 11.028322 -11.302433 -2.372623 -1.384267 -14.238621 -6.320142 -0.62543 -26.924339 -3.827598 -4.785621 -51.316235 -2.383848 -13.708558 -7.363481 -3.720963 18.141195 -14.052773 -3.242661 8e-06 -18.787331 2.8e-05 -0.429715 -8.456087 2.555543 -0.0 -1e-06 -1e-06 -15.923571 -20.094511 -5.473613 30.419271 -7.190859 1.735948 2e-06 -8.162957 1.4e-05 -1.861899 -22.861599 -6.167945 -2e-06 -7e-06 -2e-06 125.228416 -8.96327 -9.695778 45.711452 0.177021 -0.190354 -72.778091 -7.658473 0.797403 -9.828291 1.765323 2.025721 -0.999996 -1e-06 0.0 -15.978293 -3.432613 -0.677598 70.240242 -0.88681 0.273154 -97.746498 7.243126 5.978545 -28.979992 1.156188 1.450847 -1.000003 1e-06 0.0 
0.0 0.0 0.0 0.0 -0.0 0.0 4.241486 85.578812 5.964229 90.204369 -5.891744 88.478943 9.0319 -0.631281 1.226417 -7.01237 -0.105386 1.844926 24.481495 -1.208856 1.615519 21.340506 -0.688657 2.343942 -2.696547 -0.430311 0.474281 -45.954029 -0.315164 0.337188 5e-06 -0.0 -0.0 0.046479 0.030065 -0.097054 0.082251 0.044218 -0.069371 0.085937 0.008081 -0.127268 -113.43544 -79.611855 129.687698 54.245506 -55.81406 -53.416458 118.988136 -0.176896 0.129317 15.450014 19.32934 69.805618 17.636707 -26.322891 52.411442 -19.466717 -14.395609 29.410519 7e-06 -8.774854 -8e-06 15.842074 -17.739359 6.047665 -0.609782 -1.795659 -3.889341 -4.807112 -11.046872 -2.937863 -1.9e-05 -20.976173 1.4e-05 -5.020022 -25.033817 -4.031903 5e-06 -1e-06 2e-06 -10.634565 -5.687 -3.565606 10.573289 -17.923042 -3.113898 -1.2e-05 -13.821311 8e-06 -0.501808 -31.181856 -4.027043 -10.743725 -59.220604 6.700816 -13.982755 -7.150239 -2.875057 13.77276 -8.401525 -3.218244 0.347689 -34.211849 0.771686 -0.963063 -17.733566 2.62105 0.0 3e-06 1e-06 -17.346485 -20.095316 -4.201798 21.75762 -1.638366 3.866459 -4e-06 -6.33887 4e-06 -1.697615 -22.591986 -6.194061 1e-06 -4e-06 -3e-06 131.870789 -85.463608 61.549519 60.31406 -47.00491 -44.426014 105.226295 0.866339 0.234998 13.742948 23.651833 67.803589 22.182243 -20.376099 49.933693 -16.701912 -16.743597 28.476751 -8e-06 -12.690675 -2e-06 17.621033 -17.464327 2.306234 -0.105923 -1.513863 -4.275908 -5.039066 -5.612906 -2.953583 9e-06 -11.020622 1e-06 -6.111321 -15.895514 -3.840522 0.0 -2e-06 -1e-06 -10.283416 -5.680317 -4.341874 11.02835 -11.302484 -2.37264 -1.384268 -14.238704 -6.320186 -0.625423 -26.924524 -3.82765 -4.675517 -51.223827 -2.451579 -13.708581 -7.363518 -3.720975 18.141237 -14.052845 -3.242687 9e-06 -18.787449 1.1e-05 -0.42972 -8.456145 2.555548 2e-06 1e-06 0.0 -15.923601 -20.094597 -5.473631 30.419344 -7.19088 1.735943 1e-06 -8.163002 8e-06 -1.861901 -22.861767 -6.168001 -2e-06 -5e-06 -2e-06 125.565254 -8.588622 -11.032632 49.118908 0.157135 -0.16839 -72.738838 -7.140448 0.830535 -8.55047 1.674266 2.012586 -0.999996 0.0 0.0 -14.960717 -4.882738 -0.121566 70.888092 -0.859421 0.354926 -91.795212 7.549363 6.84269 -34.343082 1.330563 1.486416 -1.000003 0.0 0.0 
0.0 0.0 0.0 0.0 -0.0 0.0 5.755307 86.098984 9.825091 90.38063 -6.225018 88.103798 8.945651 -0.707828 1.259004 -7.025478 -0.201078 1.977767 24.229464 -1.266902 1.421751 21.470825 -0.463536 2.378021 -2.667675 -0.542385 0.36103 -45.906162 -0.389119 0.226965 6e-06 -0.0 -0.0 0.054976 0.023293 -0.073769 0.109871 0.02872 -0.040169 0.115138 0.010451 -0.10982 -111.700966 -79.609772 127.724579 54.145737 -55.28973 -52.589359 117.995232 0.003937 -0.064795 14.9026 18.857246 69.178856 17.636585 -26.32272 52.410988 -19.466591 -14.395568 29.410286 1.1e-05 -8.77481 -0.0 15.85498 -17.788956 5.966022 -0.609774 -1.795648 -3.889316 -4.807087 -11.046814 -2.937826 -3.3e-05 -20.976032 2.9e-05 -5.020022 -25.033615 -4.03185 7e-06 3e-06 2e-06 -10.634513 -5.68697 -3.565567 10.573225 -17.922945 -3.113872 -2.2e-05 -13.821229 1.1e-05 -0.501844 -31.18162 -4.026999 -10.731488 -59.0373 6.677005 -13.982687 -7.1502 -2.87502 13.772688 -8.401478 -3.218225 0.347659 -34.211613 0.771694 -0.963064 -17.73344 2.621023 -0.0 -2e-06 -1e-06 -17.346401 -20.095215 -4.20173 21.757513 -1.638347 3.866416 -8e-06 -6.338834 5e-06 -1.697631 -22.591835 -6.193994 1e-06 -4e-06 -1e-06 131.828232 -85.451797 61.69397 59.7342 -49.172935 -44.426281 106.580284 0.458152 0.186539 13.118615 23.02943 67.956566 22.182074 -20.37583 49.933289 -16.701876 -16.743544 28.476583 7e-06 -12.690637 1.2e-05 17.401758 -17.245237 2.302205 -0.105918 -1.513865 -4.275884 -5.039053 -5.612905 -2.953558 -7e-06 -11.020593 -1.3e-05 -6.111332 -15.895492 -3.840498 -0.0 -0.0 1e-06 -10.283376 -5.680316 -4.341832 11.028303 -11.302439 -2.372653 -1.38428 -14.238675 -6.320158 -0.625432 -26.924438 -3.827677 -4.731678 -51.002804 -2.476015 -13.708535 -7.363512 -3.72093 18.141167 -14.05278 -3.242704 -3e-06 -18.787384 -3.6e-05 -0.429713 -8.456114 2.555498 -0.0 -1e-06 0.0 -15.923565 -20.094564 -5.473569 30.419258 -7.190808 1.73591 -4e-06 -8.162961 -1.8e-05 -1.861892 -22.86166 -6.16804 -0.0 -5e-06 -2e-06 126.551453 -8.333657 -12.461554 52.369312 0.126855 -0.141177 -76.094414 -7.058815 1.410544 -7.750643 1.648801 2.010034 -0.999996 1e-06 -1e-06 -15.759326 -6.033246 0.38381 73.387161 -0.886849 0.473192 -83.136345 6.485036 8.675738 -38.88953 1.425392 1.488918 -1.000001 -0.0 1e-06 
